HIERARCHY
ROOT root
{
	OFFSET 0.000000 0.000000 0.000000
	CHANNELS 6 Xposition Yposition Zposition Zrotation Yrotation Xrotation
	JOINT lhip
	{
		OFFSET 0.058581 -0.082280 -0.017664
		CHANNELS 3 Zrotation Yrotation Xrotation
		JOINT lknee
		{
			OFFSET 0.043451 -0.386469 0.008037
			CHANNELS 3 Zrotation Yrotation Xrotation
			JOINT lankle
			{
				OFFSET -0.014790 -0.426874 -0.037428
				CHANNELS 3 Zrotation Yrotation Xrotation
				JOINT ltoe
				{
					OFFSET 0.041054 -0.060286 0.122042
					CHANNELS 3 Zrotation Yrotation Xrotation
					End Site
					{
						OFFSET 0.000000 0.000000 0.000000
					}
				}
			}
		}
	}
	JOINT rhip
	{
		OFFSET -0.060310 -0.090513 -0.013543
		CHANNELS 3 Zrotation Yrotation Xrotation
		JOINT rknee
		{
			OFFSET -0.043257 -0.383688 -0.004843
			CHANNELS 3 Zrotation Yrotation Xrotation
			JOINT rankle
			{
				OFFSET 0.019056 -0.420046 -0.034562
				CHANNELS 3 Zrotation Yrotation Xrotation
				JOINT rtoe
				{
					OFFSET -0.034840 -0.062106 0.130323
					CHANNELS 3 Zrotation Yrotation Xrotation
					End Site
					{
						OFFSET 0.000000 0.000000 0.000000
					}
				}
			}
		}
	}
	JOINT lowerback
	{
		OFFSET 0.004439 0.124404 -0.038385
		CHANNELS 3 Zrotation Yrotation Xrotation
		JOINT upperback
		{
			OFFSET 0.004488 0.137956 0.026820
			CHANNELS 3 Zrotation Yrotation Xrotation
			JOINT chest
			{
				OFFSET -0.002265 0.056032 0.002855
				CHANNELS 3 Zrotation Yrotation Xrotation
				JOINT lowerneck
				{
					OFFSET -0.013390 0.211636 -0.033468
					CHANNELS 3 Zrotation Yrotation Xrotation
					JOINT upperneck
					{
						OFFSET 0.010113 0.088937 0.050410
						CHANNELS 3 Zrotation Yrotation Xrotation
						End Site
						{
							OFFSET 0.000000 0.000000 0.000000
						}
					}
				}
				JOINT lclavicle
				{
					OFFSET 0.071702 0.114000 -0.018898
					CHANNELS 3 Zrotation Yrotation Xrotation
					JOINT lshoulder
					{
						OFFSET 0.122921 0.045205 -0.019046
						CHANNELS 3 Zrotation Yrotation Xrotation
						JOINT lelbow
						{
							OFFSET 0.255332 -0.015649 -0.022946
							CHANNELS 3 Zrotation Yrotation Xrotation
							JOINT lwrist
							{
								OFFSET 0.265709 0.012698 -0.007375
								CHANNELS 3 Zrotation Yrotation Xrotation
								End Site
								{
									OFFSET 0.000000 0.000000 0.000000
								}
							}
						}
					}
				}
				JOINT rclavicle
				{
					OFFSET -0.082954 0.112472 -0.023707
					CHANNELS 3 Zrotation Yrotation Xrotation
					JOINT rshoulder
					{
						OFFSET -0.113228 0.046853 -0.008472
						CHANNELS 3 Zrotation Yrotation Xrotation
						JOINT relbow
						{
							OFFSET -0.260127 -0.014369 -0.031269
							CHANNELS 3 Zrotation Yrotation Xrotation
							JOINT rwrist
							{
								OFFSET -0.269108 0.006794 -0.006027
								CHANNELS 3 Zrotation Yrotation Xrotation
								End Site
								{
									OFFSET 0.000000 0.000000 0.000000
								}
							}
						}
					}
				}
			}
		}
	}
}
MOTION
Frames: 7
Frame Time: 0.033333
0.103592 -0.137485 0.959624 179.982280 -0.686035 91.462168 11.375752 3.568626 -10.936179 -7.839131 -3.048102 17.659332 0.129925 4.750579 -11.137744 0.000000 -0.000000 0.000000 -14.239978 -6.812731 -16.507286 0.945721 -2.544030 22.989681 6.576762 -3.332597 -6.979918 0.000000 -0.000000 0.000000 0.344455 2.374592 16.924401 2.106639 -3.497392 5.035962 1.404275 1.813982 -4.275607 0.123210 6.496728 9.661455 4.406687 0.407196 26.753181 -23.853259 -27.193385 6.666580 -74.478014 -25.598952 25.435697 3.048266 -13.866815 2.243107 17.593397 9.647925 -31.991467 28.994303 26.633612 11.818495 66.122391 30.789846 17.010761 -11.848553 5.919122 -17.018454 5.954391 2.143749 -26.029131 
0.103025 -0.137376 0.959611 -179.970283 -0.752026 91.325921 11.254766 3.661706 -10.876656 -7.764076 -2.794852 17.813440 0.363147 4.470425 -11.150827 0.000000 -0.000000 0.000000 -14.360911 -7.066718 -16.413699 0.937734 -2.874411 23.031654 6.255431 -2.962813 -6.987656 0.000000 -0.000000 0.000000 0.455025 2.444258 17.085332 2.075644 -3.574485 4.927849 1.272840 2.018420 -4.167477 -0.056878 6.331587 9.658491 4.553855 0.216075 26.747827 -24.137691 -27.669509 7.046034 -74.011010 -25.971047 24.897658 2.709354 -13.443537 1.444944 18.145869 9.149260 -30.842689 29.327265 26.846886 12.201133 65.629381 30.815821 16.390926 -11.881085 6.005364 -17.312855 5.603337 2.034758 -25.820888 
0.102708 -0.137347 0.959487 -179.981223 -0.696637 91.366464 11.281499 3.698077 -10.898080 -7.752408 -2.742140 17.792585 0.409963 4.404903 -11.220140 0.000000 -0.000000 0.000000 -14.282057 -7.056707 -16.451906 0.884013 -2.965122 22.994464 6.167944 -2.960765 -6.984997 0.000000 -0.000000 0.000000 0.411603 2.491959 17.170318 2.132183 -3.556892 4.749923 1.336167 2.032870 -4.194562 -0.112905 6.484399 9.732186 4.567759 0.337430 26.814653 -24.266833 -27.840810 7.175529 -73.926394 -26.095263 24.796284 2.651743 -13.129575 1.368089 18.090034 8.942450 -30.326999 29.525858 26.977388 12.371100 65.552438 30.828714 16.273943 -12.139957 5.761849 -17.497785 5.841376 2.151097 -25.836530 
0.101971 -0.137524 0.959609 -179.947938 -0.637693 91.425749 11.298840 3.678369 -10.980373 -7.775086 -2.695298 17.814357 0.419735 4.420474 -11.217331 0.000000 -0.000000 0.000000 -14.256448 -7.079474 -16.432744 0.904462 -2.936364 22.852986 6.186605 -2.914510 -6.906056 0.000000 -0.000000 0.000000 0.455281 2.607003 16.993650 2.198236 -3.614995 4.847209 1.381064 1.900610 -4.084828 -0.137957 6.605120 9.816120 4.569813 0.406086 26.580156 -24.305886 -28.011612 7.201759 -73.719581 -26.188816 24.750985 2.641950 -13.153932 1.168129 17.739973 8.891435 -29.866461 29.518212 27.011578 12.345714 65.435818 30.924475 16.201349 -12.084065 5.848965 -17.500538 6.243894 2.190986 -25.830514 
0.101752 -0.137521 0.959631 -179.968627 -0.650862 91.446590 11.268983 3.725272 -10.992719 -7.785808 -2.674941 17.818922 0.417682 4.444920 -11.230365 0.000000 -0.000000 0.000000 -14.260477 -7.093193 -16.452294 0.856493 -2.963749 22.816097 6.208021 -2.945302 -6.880196 0.000000 -0.000000 0.000000 0.414615 2.613898 17.030958 2.175182 -3.623193 4.726725 1.408032 1.956406 -4.023320 -0.133451 6.601888 9.797946 4.617531 0.377898 26.615563 -24.179732 -28.018459 7.194393 -73.753860 -26.201750 24.825199 2.687066 -13.227999 1.348015 18.280263 9.161665 -29.784148 29.471093 26.966859 12.238947 65.499069 30.839231 16.237056 -11.954581 6.028233 -17.432407 5.740425 2.083258 -26.380024 
0.101331 -0.137422 0.959787 -179.933593 -0.628866 91.417225 11.268154 3.739937 -10.946695 -7.777610 -2.712518 17.788970 0.446467 4.357745 -11.212246 0.000000 -0.000000 0.000000 -14.269207 -7.124104 -16.340443 0.837073 -3.008968 22.698076 6.259836 -2.897598 -6.828643 0.000000 -0.000000 0.000000 0.441596 2.670220 17.116838 2.227948 -3.596557 4.676044 1.427234 1.909025 -4.076715 -0.245319 6.531034 9.919924 4.567835 0.312976 26.627048 -24.189077 -28.141139 7.282617 -73.681118 -26.148285 24.830596 2.839851 -13.291141 1.695390 17.907199 9.079551 -29.372484 29.459108 26.983634 12.142049 65.608993 30.709605 16.163347 -12.185963 6.006790 -17.652808 6.081460 2.094710 -26.151429 
0.101096 -0.137354 0.959848 -179.968614 -0.647789 91.375930 11.216270 3.788419 -10.877775 -7.768633 -2.772401 17.773110 0.463349 4.403177 -11.204635 0.000000 -0.000000 0.000000 -14.325044 -7.153153 -16.245328 0.878655 -2.954286 22.597722 6.284993 -2.850216 -6.771500 0.000000 -0.000000 0.000000 0.383307 2.721538 17.134779 2.221266 -3.600138 4.704724 1.445990 1.961258 -4.067141 -0.206971 6.643413 10.023528 4.597432 0.386731 26.646536 -23.988933 -28.204694 7.163278 -73.606944 -26.215328 24.794395 2.743984 -13.219394 1.834731 18.345869 9.349804 -29.176727 29.410231 27.041445 12.228821 65.731112 30.772512 16.106886 -12.282387 6.201455 -18.074326 5.650627 1.689597 -26.464127 
